<svg id="Layer_1" enable-background="new 0 0 512 512" height="512" viewBox="0 0 512 512" width="512" xmlns="http://www.w3.org/2000/svg"><g><g><g><g id="XMLID_1478_"><g id="XMLID_1479_"><g id="XMLID_1480_"><g id="XMLID_1481_"><g id="XMLID_1482_"><g id="XMLID_1483_"><g id="XMLID_1484_"><g id="XMLID_1485_"><g id="XMLID_1486_"><g id="XMLID_1487_"><g id="XMLID_1488_"><g id="XMLID_1549_"><g id="XMLID_1550_"><g id="XMLID_1551_"><g id="XMLID_1552_"><path d="m0 256c0-141.385 114.615-256 256-256s256 114.615 256 256c0 56.499-18.303 108.723-49.302 151.066-46.575 63.619-121.812 10.934-206.698 10.934s-160.123 52.685-206.698-10.934c-30.999-42.343-49.302-94.567-49.302-151.066z" fill="#ff559a"/></g></g></g></g></g></g></g></g></g></g></g></g></g></g></g></g></g><path d="m256 418c84.886 0 160.123 52.685 206.698-10.934 31-42.344 49.302-94.567 49.302-151.066 0-6.855-.277-13.645-.806-20.365l-195.061-195.312-32.118 79.677-131.064 96.695 48.07 47.689c5.409 9.819 23.002-.602 28.979 5.63l-17 69.231-163.69 67.815c.026.035.049.078.075.115 46.581 63.445 121.778 10.825 206.615 10.825z" fill="#d82b7a"/><g><path d="m312.03 260.488h-112.06v118.84l56.03 38.672 56.03-38.672z" fill="#f7a969"/><path d="m312.03 260.491v118.84l-56.03 38.669v-157.509z" fill="#ea8d4e"/><path d="m385.54 332.29h-73.51v.002c-6.363 24.708-34.62 43.375-56.03 43.375s-55-24.667-56.03-43.375v-.002h-73.5c-41.82 0-75.88 33.26-77.16 74.77 46.57 63.62 121.81 104.94 206.69 104.94s160.12-41.32 206.69-104.94c-1.27-41.52-35.32-74.77-77.15-74.77z" fill="#ffe69f"/><path d="m462.69 407.06c-46.57 63.62-121.81 104.94-206.69 104.94v-136.33c10.7 0 23.12-4.67 33.66-12.42 10.54-7.76 19.19-18.61 22.37-30.96h73.51c41.83 0 75.88 33.25 77.15 74.77z" fill="#ffd261"/><path d="m349.62 151.149c-3.955-60.043-52.523-82.233-93.62-82.233s-89.665 22.19-93.62 82.233c-10.628 2.055-18.177 15.995-16.988 27.265l1.822 25.648c1.247 11.835 11.65 20.476 23.115 19.19l1.977-.214c23.485 63.063 60.316 69.638 83.694 73.33 23.378-3.692 60.209-10.267 83.694-73.33l1.977.214c11.465 1.286 21.868-7.354 23.115-19.19l1.822-25.648c1.189-11.27-6.36-25.21-16.988-27.265z" fill="#ffbf85"/><path d="m366.609 178.414-1.822 25.648c-1.247 11.835-11.65 20.476-23.115 19.19l-1.977-.214c-8.027 21.528-17.602 36.48-27.664 46.971-19.404 20.242-40.629 23.924-56.03 26.359v-227.452c41.097 0 89.665 22.19 93.62 82.233 10.627 2.055 18.176 15.995 16.988 27.265z" fill="#f7a969"/><path d="m358.323 125.891s-4.478-47.857-42.189-85.568l-15.288 12.57-44.846-36.893-44.845 36.894-15.288-12.57c-37.711 37.711-42.189 85.568-42.189 85.568.006-.008-1.789 19.847.145 30.119l16.875 21.907 8.343-36.928c2.916-12.906 9.944-24.623 20.327-32.824 12.124-9.576 30.724-16.796 56.632-7.368 25.908-9.428 44.508-2.208 56.632 7.368 10.383 8.201 17.411 19.918 20.327 32.824l8.343 36.928 16.875-21.907c1.935-10.273.14-30.128.146-30.12z" fill="#a06564"/><path d="m359.08 142.95c0 4.69-.22 9.46-.9 13.06l-16.88 21.91-8.34-36.93c-2.92-12.91-9.95-24.62-20.33-32.83-12.12-9.57-30.72-16.79-56.63-7.36v-84.8l44.85 36.89 15.28-12.57c37.71 37.71 42.19 85.57 42.19 85.57s.76 8.38.76 17.06z" fill="#875959"/><path d="m312.03 332.29c-25.205 42.605-86.855 42.605-112.06 0h-29.97s8.333 65.377 86 65.377 86-65.377 86-65.377z" fill="#29cc9a"/><path d="m342 332.29s-8.33 65.38-86 65.38v-33.43c21.72 0 43.43-10.65 56.03-31.95z" fill="#17af84"/><path d="m314.363 422.145h50.182v30.654h-50.182z" fill="#ff9b24"/></g></g></svg>